<svg version="1" xmlns="http://www.w3.org/2000/svg" width="620" height="620" viewBox="0 0 465.000000 465.000000"><path d="M0 149.4v149.4l9.5-.4c5.3-.2 10-.6 10.4-.9.5-.3 1.1.2 1.4.9.3.8 1.8 1.7 3.4 1.9 1.5.2-3.4.2-10.9-.1-10.1-.4-13.8-.2-13.8.6 0 .7 1.5 1.2 3.3 1.3l3.2.1-3.2 1-3.3 1.1V375h2.4c1.4 0 3.1.7 3.9 1.5 1.1 1 1.7 1.1 1.9.3.3-.7 1.4-.9 3.2-.4 2.2.5 2.6 1.1 2.2 2.9-.6 2.2-.6 2.2.6-.1 1.1-2.2 1.4-2.3 14-1.8 7 .3 13.3.8 13.8 1.1.5.3 6.6-2.6 13.5-6.5l12.6-7h20.4c11.3 0 20.5.4 20.5.9s-.6 1.3-1.3 1.8c-1.4 1.2-11 4.3-13 4.3-1.5 0-14.5 5.7-20.9 9.1-5.1 2.7-16.8 6.4-30 9.4-12.6 2.9-20.1 6-23.7 9.9-1.5 1.6-3.5 2.6-5.3 2.6-2.6 0-2.8.2-1.7 2.2 1 1.9.9 2-.7 1.3-2.6-1.1-10.7-2.4-11.7-1.8-.4.2-.7 13.9-.7 30.4V465h112c61.6 0 112-.2 112-.5 0-.6-8.4-4.2-11.7-4.9-2.6-.6-2.9-1.1-2.6-3.4.3-1.9.2-2.3-.5-1.3-.5.7-1.5 1-2.1.7-.7-.4-1.1.1-1.1 1.3 0 1.9-.2 1.9-3.2.6-1.8-.8-3.2-1.9-3-2.6.2-.6-.3-.9-1.1-.6-.7.3-1.9-.4-2.5-1.4-.8-1.3-.9-1.9-.1-1.9.5 0 .7-.5.4-1-.4-.6-1-.8-1.5-.5-.5.3-1.2 0-1.7-.7-1.1-1.8-1-13.9.1-13.5 1.3.4 2.2 4.9 1.5 7.7-.2.8.1 1.4.8 1.5 2 0 2.7 1.5.7 1.5-1.6.1-1.4.5 1.1 2.7 1.7 1.4 2.9 2.8 2.8 3-.9 1.1 0 2.3 1.7 2.3 1.1 0 2-.5 2-1 0-.6-.4-1-1-1-.5 0-1-.6-1-1.4 0-.8-1-1.8-2.1-2.1-1.6-.5-1.8-.9-.9-1.5.9-.5 2 0 3.3 1.6 1 1.3 2.3 2.2 2.8 1.9.5-.3 1.8-.1 2.9.5 1.1.6 2 .7 2 .3 0-1.2-7.1-6.7-9.4-7.3-1.1-.3-2.1-1.2-2.4-2-.3-1.2-.2-1.3.6-.1.5.7 1.5 1 2.2.6.7-.4 2.4.4 4 2 2 1.9 2.8 2.3 2.6 1.1-.2-1.7-7.3-7.5-9.3-7.6-.6 0-1.7-1.3-2.4-2.9-1.1-2.4-1.8-2.9-3.9-2.5-1.9.4-3.3-.3-5.9-3-1.9-2-3-3.6-2.5-3.6.6 0 2.1 1.1 3.4 2.5 3 3.2 7.8 2.9 11.9-.8 2.9-2.5 3.1-2.6 8-1.3 2.8.7 4.8.9 4.5.4-.3-.4.2-.8 1-.8 2 0 2.1-1.6.2-2.3-1.2-.5-1.3-1.3-.4-4.4.5-2.1 1.6-4.2 2.4-4.6.8-.4 1.4-1.4 1.4-2.1 0-2 3.4-4.6 5.9-4.6 1.6 0 2.1-.4 1.7-1.5-.3-.8-.1-1.5.4-1.5 1.7 0 1.1-2.5-1.3-5-2-2.1-2.2-3-1.5-5.2.6-1.6 2.1-3.1 3.8-3.6 1.6-.6 3.3-1.9 3.9-3 .6-1.2 3.4-2.8 6.3-3.7 2.9-1 6-2.4 6.9-3.1.8-.8 2.1-1.4 2.8-1.4 2.5 0 21-10.5 21.5-12.2.2-1.1 1.4-1.8 2.8-1.9 1.6 0 1.9-.2.8-.7-.8-.4-1.6-1.5-1.6-2.4-.1-1 .3-1.5.9-1.1.7.4.8 0 .4-1.1-.5-1.4-.3-1.7.8-1.2.8.3 1.5.1 1.5-.4 0-1.7-2.6-1.1-4.5 1-1 1.1-2.2 2-2.7 2s-2.4 1.1-4.2 2.5c-2.6 2-3.5 2.2-4.5 1.2-1.1-1-1.1-.8-.2 1 .9 1.8.8 2.4-1.1 3.7-1.2.9-2.4 1.3-2.7.9-.3-.3 0-.8.7-1 .6-.3 1.2-1 1.2-1.7 0-1.7-4.3-1.3-4.8.4-.5 1.4-4.2 5.3-4.2 4.4 0-.4-1.9 1.2-4.2 3.5-3 3-4.3 3.8-4.9 2.9-.6-.9-1-.8-1.5.5-.4 1.1-1.3 1.6-2.4 1.2-1-.3-2.1-.1-2.5.5-.3.6-1.2.7-1.8.3-.6-.4-2.5-.6-4.1-.5-1.6.2-3.9-.4-5.2-1.3-1.3-.8-2.5-1.1-2.9-.6-.3.5.1 1.2.7 1.4.7.3.3.6-.9.6-1.3.1-2.3-.4-2.3-.9 0-1.6-3.8-1.1-4.8.6-.7 1.3-1.8 1.5-4.4 1-3.5-.6-7.4-3.7-6.2-4.9.4-.3-.6-.5-2.2-.4-2.1.1-2.9-.3-3.2-1.8-.2-1.1-1-2.5-1.9-3.2-1-.8-1.2-1.9-.7-3.5.6-2.1.5-2.2-1.1-.8-1.5 1.2-1.9 1.1-3.6-1-1-1.4-2.1-3.3-2.5-4.3-.3-.9-1.1-1.7-1.8-1.7-.6 0-1.9-2.4-2.8-5.3-1.5-4.8-1.5-5.3 0-7.1 1.6-1.8 1.6-1.9 0-1.3-2.1.7-2.2.3-.8-2.4 1.4-2.5 3.2-2.4 5.9.5 3.2 3.4 9.9 4.2 12.3 1.4 1.6-1.8 1.8-1.9 2.4-.4.3.9 1 1.6 1.6 1.6.5 0 .6-.5.3-1-.6-1 2.1-.7 6.2.5 1.5.5 3.2-2.4 3-4.9-.1-1.1.4-2.1 1.1-2.3.7-.3 1.3.1 1.1.8-.6 4.7 1.6 5.4 2.5.9.5-2.6.8-2.9 2.4-2.1 2 1.1 4.2-.2 4.2-2.5 0-.9-2.7-1.1-10.1-.8-10.1.3-10.1.3-9.7-1.9.4-2.3-1.4-5.1-2.6-4-.3.4-.6.1-.6-.5 0-.7-1.5-2-3.4-2.8-2.4-1.2-3.3-2.3-3.2-3.8.1-2 .5-2.1 11.6-1.8 8.8.2 11.1 0 9.6-.9-1-.6-4.7-1.1-8.2-1-3.4 0-6.6-.4-6.9-.9-.3-.6-1.7-.7-2.9-.4-4.3 1-7.4-5.3-4.6-9.6.8-1.3 1.3-1.3 3.1-.2 1.1.7 2.2 1.2 2.2 1 1.9-4 2.6-4.3 8.1-4.4 6.5-.2 7.4-.7 5.6-2.9-1.5-1.8-3.7-2-4.3-.3-.6 1.9-1.5.7-2-2.6-.3-2.5-1-3.1-5-4.3-4.5-1.3-6-3.4-3.7-4.8.6-.4 4.8-.9 9.3-1.2 4.5-.3 8.3-.6 8.4-.7.1-.1 0-1.2-.3-2.3-.4-1.4-1.5-2.3-3.3-2.5-2.1-.2-2.5-.8-2.3-2.6.2-2.1-.1-2.3-2.8-1.7-1.9.4-3 .3-3-.4 0-.6-.6-1.1-1.4-1.1-.8 0-3-2.8-4.8-6.3-3.4-6.1-3.4-6.3-3.1-16.7.3-5.8 1-12.3 1.6-14.5 1.2-4.2 1.5-37.1.4-43.5-1.1-6.2-1.2-6.6-3.5-9.4-1.2-1.6-2.2-3.7-2.2-4.6 0-1-1-2-2.4-2.4-1.3-.3-2.6-1.5-2.9-2.6-.4-1.5-1.3-2-3.9-2-2.6 0-3 .3-1.8 1.1 1.2.9 1.1.9-.5.3-1.1-.4-3.7-.9-5.8-1.2-3.1-.3-3.6-.7-2.6-1.8.9-1.1.8-1.4-.5-1.4-.9 0-1.6.4-1.6 1 0 .5-.5 1-1.1 1-.5 0-.8-.4-.4-1 .3-.5-.8-.7-2.8-.5-2.8.4-3.6 0-4.5-1.9-.8-1.8-1.7-2.3-3.1-1.9-1.6.4-2.1-.1-2.6-2.3-.4-1.6-1.1-3.9-1.6-5.2-1.2-3-1.1-3.5.2-2.6.8.4 1-1 .8-4.7-.3-4.5-.1-5.4 1.2-5.1 1.3.2 1.5-.8 1.3-6-.1-3.5.2-6.8.7-7.5.7-.8.4-2.1-1.1-4.1-1.2-1.6-2.4-4.9-2.7-7.3-.3-2.4-.9-4.9-1.3-5.4-.4-.6-.7-2.1-.6-3.5.1-1.4-.2-2.7-.5-3-.4-.3-.9-3.4-1-7-.1-3.6-.8-7.4-1.4-8.5-.7-1.1-1.5-4.1-1.7-6.5-.6-5.7 1.7-10.5 8.4-17.6 4-4.2 4.8-5.6 4.3-7.7-.5-1.8.1-3.6 2.2-6.5 1.5-2.3 3.4-4.1 4.1-4.2.6 0 1.2-.3 1.2-.8 0-.4 1.6-1.6 3.5-2.6 1.9-1.1 3.5-2.3 3.5-2.9 0-.5.7-.7 1.5-.4.8.4 2.5-.3 3.7-1.3 6.1-5.2 7.1-5.8 8.4-5.3.9.3 1.8-.5 2.5-2.6.6-1.7 1.6-3.1 2.1-3.1.6 0 .5.6-.2 1.5-1.1 1.3-1 1.4.4.9.9-.3 1.6-1 1.6-1.4 0-1.1 4.4-2.7 11.5-4.3 9.2-2 22.9-2.1 31.5-.2 4.1 1 9 2 10.7 2.2 1.8.3 3.1.9 2.8 1.3-.3.5.4.6 1.4.3 2.4-.6 16.5 4 24.6 8 12.8 6.4 33.1 21.7 39.6 30 8.4 10.4 14.4 26.8 18.9 51.1 1.1 5.9 2.2 11.1 2.4 11.5.3.4.8 3.9 1.1 7.7 1.2 14.6 1.3 24.1.3 30.7-.6 3.7-.9 7-.6 7.3.3.2 2.1-1.1 4.1-3.1 1.9-1.9 4.2-3.5 5.1-3.5 2.7 0 6.6 4.6 6.6 7.8 0 1.5.9 6.2 2 10.3 2.6 9.7 2.5 13.8-.5 27.2-1.4 6.2-3.2 14.6-4.1 18.7-4.6 21.7-6.4 25.4-13.9 29-4.2 2-4.7 2.1-6.9.7l-2.3-1.6-2.8 11.2c-1.5 6.3-4.8 15.4-7.3 20.7-4.2 9-4.5 10.1-4.9 19.8-.4 9.2-.2 10.5 1.4 11.8 1.6 1.3 1.6 1.3.1.8-2-.7-2.5 1.2-.5 1.9.7.3.4.6-.6.6-1.7.1-1.8 1.1-1.2 15.8.3 8.7.7 20.5.8 26.3l.2 10.5-4.4 8.5c-2.4 4.7-5.2 9.7-6.2 11.1-1 1.4-1.6 2.9-1.2 3.3 1.2 1.2 2.1.6 2.7-1.9.4-1.4 1.3-2.5 2.1-2.5s2.2-1.4 3.1-3.1c1-2 1.9-2.8 2.3-2 .5.8 1.4.4 2.9-1.2 1.4-1.5 1.8-2.7 1.2-3.6-.5-.9-.3-2 .6-2.9.9-.8 1.3-2 1-2.8-.3-.7.2-1.8.9-2.4.8-.7 1.2-1.7.8-2.3-.4-.6 0-.8 1-.4 1.3.5 1.5 0 1-2.8-.5-3.1-.4-3.3 1.8-2.9 1.9.5 2.1.4.9-.5-1.3-.9-1.3-1.2-.1-2 .7-.5 1.1-1.4.7-2-.4-.7-.1-.9.7-.5.8.3 1.8.1 2.2-.5.3-.6.1-1.1-.5-1.1s-.8-.5-.5-1c.5-.8 1.2-.7 2.3.2 1.3 1.1 1.4 1.1 1-.2-.2-.8-1.5-2.1-2.9-2.7l-2.4-1.3h2.8c2.7 0 3.6-1.3 1.7-2.5-.6-.3-1-.1-1 .4 0 .6-.7 1.1-1.5 1.1-1.9 0-1.9-1.4-.1-3.3 1.1-1.1 1.2-1.7.3-2.7-1-1-.8-1 1-.1 1.9.9 2.2.9 1.7-.3-.3-.8-1.5-1.7-2.7-2-2.1-.6-2.1-.7-.4-2 1.7-1.3 1.7-1.5.2-2.4-1.5-.8-1.5-1.3-.5-3.2 1.1-2 1-2.5-1-4-1.3-1-2.2-2.8-2.2-4.3-.1-1.5-.4-2.4-.9-2.1-.5.2-1.1-.6-1.5-1.9-.4-1.8-1.1-2.3-2.5-2-1 .3-1.9 0-1.9-.6s.5-1.1 1.1-1.1c.5 0 .7-.6.3-1.3-.9-1.4 2.3 1.2 8.8 7.2 3.7 3.4 4.6 5 4.6 7.5 0 1.7.4 5.7.9 8.9.6 3.3.6 5.7.1 5.7s-.6.5-.3 1.1c1.2 1.9.6 18.2-.7 19.2-1 .6-1 1-.1 1.3 1.3.6-.2 6.4-1.7 6.4-.4 0-.5 1.1-.2 2.5.3 1.6-.1 2.7-1.1 3.1-.9.3-1.3 1.3-1 2.5.3 1 .1 1.9-.5 1.9-.5 0-1.3.7-1.6 1.6-.4.9-.2 1.3.6.8.6-.4.3.7-.8 2.5-1.8 3.1-3.4 4.1-3.4 2 0-.5-.5-.7-1-.4-.6.4-.5 1.1.4 2 1.8 1.9.9 6.2-1.5 6.8-1.1.3-1.9 1.4-1.9 2.5 0 5.5-2.3 6.6-6 2.7-1.9-2.1-2.1-2.5-.7-2.5 2.3 0 2.1-1.7-.2-2.3-1.4-.3-1.8-.1-1.4.9.3.8-.1 1.4-.8 1.4-.7 0 .1 1.5 1.9 3.3 1.8 1.8 3.2 3.7 3.2 4.2 0 .4-1-.3-2.2-1.7-1.3-1.4-3.8-3.3-5.5-4.2-3.8-1.9-4.4-3.1-1-2.1 1.7.6 1.9.4 1.1-.5-1.5-1.6-4.9-.9-4.9 1 0 1.4-8.1 8-9.7 8-.5 0-.8-.7-.8-1.6 0-1.1-.9-.7-2.9 1.5-2.8 3-4.9 4.2-3.6 2.1.3-.5.2-1-.4-1-.5 0-1.3.5-1.6 1.1-.4.5-1.2.8-1.8.6-.7-.2-2.4.4-3.9 1.4-1.4 1.1-3.3 1.6-4.2 1.3-.9-.3-1.6-.1-1.6.4 0 .6-.8 1.1-1.7 1-3-.1-12.7 2.2-13.2 3.1-.4.4-1.6 1.2-2.9 1.6-4.3 1.3-13.1 6.9-12.5 7.8.3.6.1.7-.4.4-1.7-1.1-13.7 8.8-12.7 10.5.8 1.3 3.7.9 3.1-.5-.3-.8.6-1.2 2.4-1.3 1.6-.1 2.9.3 2.9.8s.9.4 1.9-.2c3-1.6 4.8-1.2 2.4.5-2.1 1.5-2.1 1.7-.5 3.5.9 1.1 2.1 2 2.6 2 .6 0 .5-.5-.1-1.1-.8-.8-.7-1.6.5-3 2.2-2.5 4.2-2.4 4.2.2 0 1.7-.4 1.9-2.2 1.3-2-.6-2.1-.5-.9 1 .8.9 2.8 1.6 5 1.6 2.4 0 3.2-.3 2.2-.9-1.1-.7-1-1 .6-1.5 1.1-.4 2.8-1.5 3.8-2.6 1.7-1.9 1.6-1.9-1.9-1.3-2.4.4-3.6.2-3.6-.6 0-1.8 2.9-2.5 5.6-1.2 2 .9 3.1.8 5.4-.4 4-2.1 3.8-1.2-.2 1.4l-3.3 2.1h2.8c1.5 0 2.7.4 2.7 1 0 .5-1.3 1-3 1-3.8 0-4 1.4-.2 1.7 1.5.1 3.5-.6 4.5-1.4.9-.9 1.7-1.1 1.7-.5 0 .6-.4 1.4-1 1.7-.6.3-1 1.1-1 1.6 0 .6.5.7 1 .4.6-.4 2.2 0 3.5.9 2.2 1.4 12.8 1.6 102.5 1.6h100V0H0v149.4zM164.5 204c0 .7-.6 1.5-1.2 1.7-.8.3-1.3-.4-1.3-1.7 0-1.3.5-2 1.3-1.8.6.3 1.2 1.1 1.2 1.8zm7.1 5.9c-1.7 1.8-1.7 1.9.3 2.6 3.9 1.2 2.8 2-7.9 6.1-5 1.9-6 1.7-6-1.2 0-2.1-.4-2.5-2-2.1-1 .3-2.4-.1-3.1-.9-1-1.2-.4-1.3 3.3-.8 6 .8 11.3-1.6 12.7-5.9 1.1-2.9 1.2-3 2.8-1.4 1.6 1.5 1.5 1.8-.1 3.6zm-19.6.1c1.2 2.3 1.2 2.4-.3 1.1-1-.7-1.7-2-1.7-2.9 0-1.8.3-1.6 2 1.8zm23.5 21.7c2 2.5 3.5 3.3 6 3.3 1.9 0 3.7.5 4 1.1.8 1.2-2.2 4.9-4 4.9-2 0-6.9 5.1-8.7 9-.9 1.9-3 4.8-4.7 6.4-1.6 1.6-3.3 4.2-3.6 5.7-.4 1.6-1.1 2.9-1.6 2.9s-.9.6-.9 1.3c0 2.1-12.1 13.7-14.3 13.7-1.8 0-10.6-7-9.9-7.8.2-.2-.9-1.3-2.3-2.4-1.7-1.3-2.5-2.7-2.2-3.9.3-1-.1-2.3-.8-2.9-1.6-1.3-1.6-1.3-1.8-14-.3-11.9.4-14.4 3.8-13.6 1.4.4 3.4.2 4.4-.3 1-.6 4.7-1.3 8.2-1.6 8.1-.6 11-1.2 12.3-2.5.5-.5 1.9-1 3.1-1 1.2 0 3-.6 4-1.4 2.5-1.8 5.7-.7 9 3.1zm5.7 25.7c.4 1.7.1 2.3-.9 1.9-.7-.3-1.3 0-1.3.6s-.7.8-1.5.5c-2-.8-1.9-3.4.2-5 2.2-1.5 2.9-1.1 3.5 2zM150.1 293c.6 0 .8.4.4.9-.3.5-.1 1.2.5 1.6.5.3 1 1.9 1 3.6 0 1.6.4 2.9.9 2.9.4 0 2 1.8 3.5 4 1.9 2.9 2.2 3.8.9 3.3-1.3-.5-1.5-.2-.9 2.1.6 2.4.5 2.6-1.2 1.7-1.1-.6-2.5-2.5-3.2-4.3-.6-1.8-2.3-5.4-3.6-8-2.8-5.6-3.2-9.3-.8-8.4.9.3 2 .6 2.5.6zm-121.4 2.6c-.3.3-1.2.4-1.9.1-.8-.3-.5-.6.6-.6 1.1-.1 1.7.2 1.3.5zm57.1 5.1c.3 2-.1 2.3-3.2 2.3-3.4 0-3.5-.1-2.4-2.5 1.5-3.3 5.1-3.1 5.6.2zm3 4.2c1.1.7 1.1.9-.1 1.4-.9.3-1.8-.1-2.1-.9-.6-1.6.2-1.8 2.2-.5zm10.5.8c-.7.2-1.9.2-2.5 0-.7-.3-.2-.5 1.2-.5s1.9.2 1.3.5zm10.4 2.9c-.3.3-1.2.4-1.9.1-.8-.3-.5-.6.6-.6 1.1-.1 1.7.2 1.3.5zM83 310c-1 .7 2.8.9 11.4.7 10.4-.2 13 .1 13.4 1.2.3 1 0 1.2-1.2.8-1-.4-8.4-.7-16.4-.8-13.4 0-14.4-.2-11.2-1.4 4.2-1.6 6.1-1.8 4-.5zm102.7 1.2c-.3.8-.6.5-.6-.6-.1-1.1.2-1.7.5-1.3.3.3.4 1.2.1 1.9zm-66.7.8c0 .5-.7 1-1.6 1-.8 0-1.2-.5-.9-1 .3-.6 1-1 1.6-1 .5 0 .9.4.9 1zm4.3.7c-.7.2-1.9.2-2.5 0-.7-.3-.2-.5 1.2-.5s1.9.2 1.3.5zm236.5 16.8c-.3.3-1.8-1.1-3.3-3.2l-2.8-3.8 3.4 3.2c1.8 1.8 3 3.5 2.7 3.8zm3.2 4.6c0 .6-.4.7-1 .4-.5-.3-1-1.1-1-1.6 0-.6.5-.7 1-.4.6.3 1 1.1 1 1.6zm1.8 4.4c-.3.3-.9-.2-1.2-1.2-.6-1.4-.5-1.5.5-.6.7.7 1 1.5.7 1.8zm-44.6 11.7c-.6.6-1.5.8-1.9.4-.4-.4-.1-1.1.7-1.6 1.9-1.2 2.7-.3 1.2 1.2zm53.2 20.9c2.3 2.7 3.3 4.9 2.3 4.9-.2 0-1.8-1.8-3.6-4-3.7-4.7-2.5-5.5 1.3-.9zm4.2 7.8c0 1.1-.4 1.7-.8 1.5-.4-.3-.8-1.2-.8-2s.4-1.4.8-1.4.8.9.8 1.9zm15.9 4.1c.7 1.2-.2 1.2-3 0-1.9-.8-1.9-.9.2-.9 1.2-.1 2.5.3 2.8.9zm8.2 3.6c-.3.3-1.2.4-1.9.1-.8-.3-.5-.6.6-.6 1.1-.1 1.7.2 1.3.5zm-9.4 2.9c3.8 3.6 3.4 4.1-.8.9-1.9-1.4-3.5-2.8-3.5-3 0-1.1 1.8-.1 4.3 2.1zm23.9 3c3.1 1.4 6.7 3.6 8.2 5 1.5 1.3 2.9 2.5 3.1 2.5h1.6c.5 0 .7.4.4 1-.3.5.1 1 .9 1s2 .9 2.6 2c.7 1.4.7 2 0 2-.5 0-1-.7-1-1.6 0-1-.6-1.4-1.5-1-.8.3-1.5.1-1.5-.4 0-.6-.9-1-2-1s-2-.4-2-1c0-.5-1.6-1.7-3.5-2.6-1.9-.9-3.5-2.3-3.5-3 0-.8-.3-1.3-.7-1.2-.5.1-2.4-.8-4.3-2-4.6-2.9-3.5-2.8 3.2.3zm22.4 15c1.6 1.2 1.6 1.4.3 1.5-.9 0-2.2-.7-2.9-1.5-1.6-1.9 0-1.9 2.6 0zM9 412.5c-.7.8-2 1.4-2.9 1.4-1.3-.1-1.3-.2.2-.6.9-.2 1.7-.9 1.7-1.4 0-.5.5-.9 1.1-.9.8 0 .8.5-.1 1.5zm345.5 9.5c-.3.5-1.2 1-1.8 1-.7 0-.6-.4.3-1 1.9-1.2 2.3-1.2 1.5 0zm-64.5 6c0 .5-.7 1-1.5 1s-1.5-.5-1.5-1c0-.6.7-1 1.5-1s1.5.4 1.5 1zm-102.5 5c1 1.1 1.6 2 1.3 2-.3 0-1.3-.9-2.3-2-1-1.1-1.6-2-1.3-2 .3 0 1.3.9 2.3 2zm80.5 15c0 .5-.5 1-1.1 1-.5 0-.7-.5-.4-1 .3-.6.8-1 1.1-1 .2 0 .4.4.4 1zm-14.6 3.5c.3.9-.2 1.3-1.2 1.2-1 0-1.8-.9-1.8-1.8 0-1.9 2.2-1.5 3 .6zm10.4-1.3c-.5 1.3-3.8 2-3.8.8 0-.8 1.7-1.8 3.3-1.9.5-.1.7.4.5 1.1zm85.2-.2c0 .5-.2 1-.4 1-.3 0-.8-.5-1.1-1-.3-.6-.1-1 .4-1 .6 0 1.1.4 1.1 1zm-100.5 1c-.3.5-1.2 1-1.8 1-.7 0-.6-.4.3-1 1.9-1.2 2.3-1.2 1.5 0zm-6.5 3c.8.5 1.1 1.2.7 1.6-.3.4-1.3.1-2.1-.5-.8-.7-2.1-.9-2.7-.5-.8.4-.9.3-.5-.4.9-1.4 2.6-1.5 4.6-.2zm23.3 3.7c-.6 1.6-3.1 2.4-3.8 1.3-.3-.5-.1-1.9.5-3 .9-1.6 1.3-1.8 2.4-.8.7.7 1.1 1.8.9 2.5zm2.2 3.3c.4.6-.6 1-2.2.9-2.5 0-2.6-.1-.8-.9 1.1-.5 2.1-.9 2.2-.9.1-.1.5.3.8.9z"/><path d="M184 147.3c0 .8.7 2.1 1.6 2.8 1.4 1.1 1.5 1 1.2-1.1-.3-2.6-2.8-4.1-2.8-1.7zM229.2 171.1c-3.5 1.5-4.2 1.6-4.2.4 0-1.9-2.4-1.9-4.4 0-.8.8-1.9 1.5-2.4 1.5-1.5 0-3.9 4.3-3.4 6.2.2 1 1 1.8 1.8 1.8s1.4.9 1.4 1.9c0 1 .7 2.1 1.5 2.5 1.7.6 2 5.2.5 9.1-.8 2.2-.6 3.2 1.7 6 2.1 2.6 3 3.1 4 2.3.8-.6 3.4-1.3 6-1.5 4.1-.3 4.5-.2 3.3 1.2-1 1.2-1 1.5.4 1.5 1 0 1.5-.4 1.2-.8-.7-1.2 4.3-8.4 5.5-7.7.5.4.9 1.4.9 2.4 0 2.8 3.9 7.1 6.3 7.1 1.2 0 3.9-.5 6-1.1 3-.8 4.1-1.8 4.9-4.1l1.1-3.1 2.8 3.1c2.9 3.2 4.7 3.7 8.3 2.3 1.7-.6.8-1.6-5.8-5.9-8.2-5.4-12.5-6.8-18.2-5.9-2.9.5-3.4.3-3.4-1.3 0-1.4 1-2.1 3.5-2.6 7.5-1.4 16.4 1.7 21.9 7.5 1.7 1.7 3.7 3.1 4.5 3.1 1.3 0 1.3-.2.2-.9-.7-.5-1.1-1.3-.8-1.8 1.4-2.2-13.5-10.3-18.8-10.3-.7 0-2.6-.5-4.2-1.1-2.3-.9-2.5-1.2-1.2-1.9 2.1-1.2 11-2 10.4-1-.7 1.2 3.4.1 7.3-1.8 3.5-1.8 4.4-3.7 1.2-2.9-1.9.5-8.3-1.2-9.6-2.6-.4-.4-2-.7-3.5-.7s-2.9-.5-3.1-1.2c-.7-2-18.6-1.8-23.6.3zm27.3 22.9c.3.5-.1 1-.9 1-.9 0-1.6.5-1.6 1.1 0 .5-.4.7-1 .4-.5-.3-1-1.3-1-2.1 0-1.6 3.6-1.9 4.5-.4z"/><path d="M274 178c0 .5-.8.7-1.7.3-1.3-.4-1.1 0 .5 1.5 2 1.7 2.7 1.9 4.3.9 1.8-1.1 1.8-1.3.2-2.5-2-1.4-3.3-1.6-3.3-.2zM343.5 186c-.3.5-.2 1 .4 1 .5 0 1.3-.5 1.6-1 .3-.6.2-1-.4-1-.5 0-1.3.4-1.6 1zM229.7 209.2c-.8 2.7 1.4 5.3 5.1 6.2 9.5 2.3 10.7 2.5 8.7 1-1-.8-2.3-1.4-2.8-1.4-.4 0-.6-.4-.3-.9s1.5-.7 2.6-.4c3.3.9 2.3-1.4-1.2-2.8-12.4-4.7-11.4-4.6-12.1-1.7zM330 213.1c0 1.1.5 1.7 1 1.4.6-.3 1-1.3 1-2.1s-.4-1.4-1-1.4c-.5 0-1 .9-1 2.1zM239.4 255.2c-.4.6.2 1.9 1.4 2.9 1.2.9 2.2 2 2.2 2.4 0 .4 2.8 3.3 6.1 6.5 3.4 3.2 5.8 6.3 5.5 6.9-.4.6-.2 1.1.3 1.1.6 0 1.1.6 1.1 1.3 0 .7.8 2 1.8 2.8.9.9 2.5 2.7 3.6 3.9 1.7 2.1 1.7 2.4.2 3.5-.8.7-1.3 1.4-1.1 1.7 1.3 1.2-2.5 2.6-8.5 3.1-7.7.6-16 2.6-16 3.8 0 .4 1.9.9 4.2 1.1 3.8.3 4.2.6 5.2 4.1l1.1 3.8 3.5-3c1.9-1.7 4.2-3 5.1-3.1.8 0 2.8-1.4 4.4-3 4.1-4.3 8.5-3.6 8.5 1.4 0 1.4.3 1.7 1.1.9 1.2-1.2 1.4-5.6.5-10.1-.9-3.8-.1-4.1 2.6-.7 2.3 2.9 3.8 2.5 3.8-1.1 0-2.8-2.6-8.4-3.9-8.4-.4 0-2.8-1.7-5.2-3.9-2.5-2.1-5.3-4.1-6.4-4.3-1.1-.2-1.9-1-1.7-1.6.1-.7-.5-1.2-1.3-1.2s-1.5-.5-1.5-1c0-.6-.7-1-1.5-1s-1.5-.4-1.5-1c0-.5-1.1-1.2-2.5-1.6-1.4-.3-3-1.5-3.6-2.5-1.4-2.7-6.6-5.2-7.5-3.7zM213.9 269.9c-3.2 3.3-3.8 5.5-1.1 4.7.9-.3 4-1 6.7-1.7 2.8-.6 5.8-1.9 6.8-2.8 1.8-1.5 1.8-1.6 0-2.2-1-.4-3.5-.8-5.6-.8-3-.1-4.5.6-6.8 2.8zM304.1 315.6c-2.2 2.8-2.8 5-1.1 3.9 1.1-.7 4.3-6.5 3.6-6.5-.3 0-1.4 1.2-2.5 2.6zM219 317.1c0 .5.5.7 1 .4.6-.3 1-.8 1-1.1 0-.2-.4-.4-1-.4-.5 0-1 .5-1 1.1zM299.2 323.1c-.7 1.2-1.1 2.4-.8 2.7.6.6 3.5-2.7 3.6-4.1 0-1.4-1.5-.7-2.8 1.4zM294.3 328.9c-1.2 1-2.5 3.1-2.8 4.7-.6 2.8-.6 2.8.9.9 2.2-2.9 2.9-3.8 4.5-5.8 1.8-2.2.2-2.1-2.6.2zM319 344c0 .6.7 1 1.5 1s1.5-.2 1.5-.4-.7-.6-1.5-1c-.8-.3-1.5-.1-1.5.4zM278.7 349.1c-1 .6-1.5 1.5-1.1 2.1.4.6-.2.8-1.7.3-1.9-.5-2.1-.4-.9.4 2.2 1.5 5 1.3 5-.3 0-.8.5-1.6 1.2-1.8.7-.3.8-.7.2-1-.5-.4-1.7-.2-2.7.3zM272 356c0 .5.5 1 1.1 1 .5 0 .7-.5.4-1-.3-.6-.8-1-1.1-1-.2 0-.4.4-.4 1zM321.5 381c.3.5 1.1 1 1.6 1 .6 0 .7-.5.4-1-.3-.6-1.1-1-1.6-1-.6 0-.7.4-.4 1zM318 382c-.9.6-1 1-.3 1 .6 0 1.5-.5 1.8-1 .8-1.2.4-1.2-1.5 0zM2.3 383.8c-2.1.3-2.3.9-2.3 7.3 0 3.8.3 6.9.6 6.9.4 0 2.3-1.5 4.4-3.3 2.9-2.7 4.8-3.5 9.3-4 10-1.2 14.6-4.7 6.2-4.7-2.5 0-5.6-.6-6.8-1.4-2.1-1.4-6.5-1.7-11.4-.8zM316 387.4c0 .2.7.7 1.6 1 .8.3 1.2.2.9-.4-.6-1-2.5-1.4-2.5-.6zM313.6 390.1c.3.5 1.2.9 2.1.9 1.9 0 .9-1.3-1.2-1.6-.8-.1-1.3.2-.9.7zM305.5 402.9c-.3.2-.5 1.2-.5 2 0 .9-1.2 2.9-2.6 4.4-1.4 1.6-2.4 3-2.1 3.3.2.2 2.1-1.4 4.2-3.7 2.9-3.2 3.9-3.8 4.6-2.8.6 1 .9.7.9-1.1 0-1.9-.5-2.6-2-2.6-1.2 0-2.3.2-2.5.5zM4.8 403.7c.7.3 1.6.2 1.9-.1.4-.3-.2-.6-1.3-.5-1.1 0-1.4.3-.6.6zM304.6 411.6c-2.3 2.2-2 3 .3 1 1.1-1 2.5-1.5 3.2-1 .8.4 1 .3.5-.4-1-1.6-2.2-1.5-4 .4zM307.5 421c.3.5 1.1 1 1.6 1 .6 0 .7-.5.4-1-.3-.6-1.1-1-1.6-1-.6 0-.7.4-.4 1zM281.1 423.9c-.8.5-1.6 1.7-1.7 2.6-.1.9.1 1.4.4 1 .4-.4.6-.9.4-1.2-.2-.3.5-1.1 1.5-1.9 2-1.5 1.6-1.9-.6-.5zM212.1 454.6c-1.1 1.3-1.1 1.8 0 3 1.2 1.1 1.4.9 1.5-1.6.1-1.7.1-3 0-3-.1.1-.7.8-1.5 1.6zM201 455.4c0 .2.7.6 1.5 1 .8.3 1.5.1 1.5-.4 0-.6-.7-1-1.5-1s-1.5.2-1.5.4zM216 459c0 .5.5 1 1 1 .6 0 1-.5 1-1 0-.6-.4-1-1-1-.5 0-1 .4-1 1zM226.3 458.9c-.7.5-.8 2.1-.4 5.6.1.6.6.3 1.1-.5.8-1.2 1.3-1.3 3-.2 1.7 1 2.1 1 2.6-.3.4-.8.4-2.1.1-2.9-.6-1.5-5.1-2.7-6.4-1.7zM220 461c0 .5.5 1 1.1 1 .5 0 .7-.5.4-1-.3-.6-.8-1-1.1-1-.2 0-.4.4-.4 1zM252 463c0 .5.5 1 1.1 1 .5 0 .7-.5.4-1-.3-.6-.8-1-1.1-1-.2 0-.4.4-.4 1zM240 464c2 1.3 4 1.3 4 0 0-.6-1.2-1-2.7-1-2.2 0-2.5.2-1.3 1zM255 464c0 .6 1.7 1 3.7 1 4.2 0 3.7-1.2-.7-1.7-1.6-.1-3 .2-3 .7z"/></svg>